<svg xmlns="http://www.w3.org/2000/svg" width="460" height="800" viewBox="0 0 460 800">
  <defs>
    <linearGradient id="bodyGrad" x1="0" y1="0" x2="0" y2="1">
      <stop offset="0" stop-color="#8661b6"/>
      <stop offset="0.45" stop-color="#6f43a8"/>
      <stop offset="1" stop-color="#5f3a90"/>
    </linearGradient>
    <radialGradient id="metal" cx="0.35" cy="0.3" r="0.9">
      <stop offset="0" stop-color="#f4f5f7"/>
      <stop offset="0.6" stop-color="#c3c6cc"/>
      <stop offset="1" stop-color="#8e9299"/>
    </radialGradient>
    <linearGradient id="chrome" x1="0" y1="0" x2="0" y2="1">
      <stop offset="0" stop-color="#f6f7f9"/>
      <stop offset="0.5" stop-color="#d4d7db"/>
      <stop offset="1" stop-color="#aeb2b8"/>
    </linearGradient>
    <radialGradient id="ledGlow" cx="0.5" cy="0.5" r="0.5">
      <stop offset="0" stop-color="#ff6a5e"/>
      <stop offset="0.55" stop-color="#e0271b"/>
      <stop offset="1" stop-color="#8e0f07"/>
    </radialGradient>
  </defs>
  <rect x="10" y="10" width="440" height="780" rx="22" fill="url(#bodyGrad)"/>
  <rect x="10" y="10" width="440" height="780" rx="22" fill="none" stroke="rgba(0,0,0,0.35)" stroke-width="3"/>
  <rect x="19" y="19" width="422" height="762" rx="16" fill="none" stroke="rgba(255,255,255,0.16)" stroke-width="2"/>
  <circle cx="104" cy="84" r="41" fill="rgba(0,0,0,0.3)"/>
  <circle cx="104" cy="84" r="41" fill="none" stroke="rgba(255,255,255,0.12)" stroke-width="1.5"/>
  <circle cx="230" cy="84" r="41" fill="rgba(0,0,0,0.3)"/>
  <circle cx="230" cy="84" r="41" fill="none" stroke="rgba(255,255,255,0.12)" stroke-width="1.5"/>
  <circle cx="356" cy="84" r="41" fill="rgba(0,0,0,0.3)"/>
  <circle cx="356" cy="84" r="41" fill="none" stroke="rgba(255,255,255,0.12)" stroke-width="1.5"/>
  <text x="230" y="298" text-anchor="middle" font-family="Georgia, 'Times New Roman', serif" font-size="44" font-style="italic" fill="#ffffff">variac fuzz</text>
  <text x="230" y="338" text-anchor="middle" font-family="-apple-system, 'Helvetica Neue', Helvetica, Arial, sans-serif" font-size="17" font-weight="600" letter-spacing="2.5" fill="rgba(255,255,255,0.78)">SUPER BADASS</text>
  <circle cx="230" cy="392" r="17" fill="rgba(224,39,27,0.25)"/>
  <circle cx="230" cy="392" r="12" fill="#3a3a3c"/>
  <circle cx="230" cy="392" r="8" fill="url(#ledGlow)"/>
  <circle cx="227.5" cy="389.5" r="2.2" fill="rgba(255,255,255,0.75)"/>
  <circle cx="230" cy="514" r="60" fill="rgba(0,0,0,0.35)"/>
  <circle cx="230" cy="510" r="59" fill="#6d7076"/>
  <circle cx="230" cy="510" r="59" fill="none" stroke="rgba(0,0,0,0.4)" stroke-width="2"/>
  <circle cx="230" cy="510" r="50" fill="url(#metal)"/>
  <circle cx="230" cy="510" r="50" fill="none" stroke="rgba(0,0,0,0.45)" stroke-width="2.5"/>
  <circle cx="230" cy="510" r="36" fill="none" stroke="rgba(0,0,0,0.2)" stroke-width="2"/>
  <ellipse cx="215" cy="491" rx="21" ry="12" fill="rgba(255,255,255,0.35)"/>
  <rect x="116" y="638" width="228" height="88" rx="12" fill="#ffffff"/>
  <rect x="116" y="638" width="228" height="88" rx="12" fill="none" stroke="rgba(0,0,0,0.2)" stroke-width="2"/>
  <text x="230" y="700" text-anchor="middle" font-family="-apple-system, 'Helvetica Neue', Helvetica, Arial, sans-serif" font-size="54" font-weight="900" letter-spacing="2.5" fill="#1d1d1f">MXR</text>
  <g transform="rotate(20 40 40)">
    <circle cx="40" cy="40" r="9" fill="url(#metal)" stroke="rgba(0,0,0,0.35)" stroke-width="1.5"/>
    <line x1="34.42" y1="40" x2="45.58" y2="40" stroke="rgba(0,0,0,0.5)" stroke-width="2.4"/>
  </g><g transform="rotate(65 420 40)">
    <circle cx="420" cy="40" r="9" fill="url(#metal)" stroke="rgba(0,0,0,0.35)" stroke-width="1.5"/>
    <line x1="414.42" y1="40" x2="425.58" y2="40" stroke="rgba(0,0,0,0.5)" stroke-width="2.4"/>
  </g><g transform="rotate(80 40 760)">
    <circle cx="40" cy="760" r="9" fill="url(#metal)" stroke="rgba(0,0,0,0.35)" stroke-width="1.5"/>
    <line x1="34.42" y1="760" x2="45.58" y2="760" stroke="rgba(0,0,0,0.5)" stroke-width="2.4"/>
  </g><g transform="rotate(35 420 760)">
    <circle cx="420" cy="760" r="9" fill="url(#metal)" stroke="rgba(0,0,0,0.35)" stroke-width="1.5"/>
    <line x1="414.42" y1="760" x2="425.58" y2="760" stroke="rgba(0,0,0,0.5)" stroke-width="2.4"/>
  </g>
</svg>
